# xmcd
#
# Track frame offsets: 
#        150
#        15748
#        30959
#        50355
#        76810
#        87609
#        101597
#        113477
#        129638
#        142870
#        157555
#        169300
#        186012
#        197307
#        210096
#        221934
#        237290
#        251985
#
# Disc length: 3543 seconds
#
# Revision: 1
# Processed by: cddbd v1.5.2PL0 Copyright (c) Steve Scherf et al.
# Submitted via: ExactAudioCopyFreeDBPlugin 1.0
#
DISCID=e10dd512
DTITLE=Al Wilson - Show and Tell: The Best of Al Wilson
DYEAR=2004
DGENRE=Soul
TTITLE0=Show and Tell
TTITLE1=La La Peace Song
TTITLE2=Keep on Lovin' You
TTITLE3=I Won't Last a Day Without You - Let Me Be The One
TTITLE4=Amen Brother
TTITLE5=Touch and Go
TTITLE6=You Do the Right Things
TTITLE7=I'm Out to Get You
TTITLE8=Born on the Bayou
TTITLE9=Listen to Me
TTITLE10=Settle Me Down
TTITLE11=Willoughby Brook Road
TTITLE12=Magic of Your Mind
TTITLE13=Queen of the Ghetto
TTITLE14=Passport
TTITLE15=I'm a Weak Man
TTITLE16=Goin' Through the Motions
TTITLE17=A Stone's Throw
EXTD=
EXTT0=
EXTT1=
EXTT2=
EXTT3=
EXTT4=
EXTT5=
EXTT6=
EXTT7=
EXTT8=
EXTT9=
EXTT10=
EXTT11=
EXTT12=
EXTT13=
EXTT14=
EXTT15=
EXTT16=
EXTT17=
PLAYORDER=
